Coordinates
version=1
nRows=12
nColumns=24
inDegrees=yes

Units are S.I. units (second, meters, Newtons, ...)
Angles are in degrees.

endheader
time	pelvis_tilt	pelvis_list	pelvis_rotation	pelvis_tx	pelvis_ty	pelvis_tz	hip_flexion_r	hip_adduction_r	hip_rotation_r	knee_angle_r	ankle_angle_r	subtalar_angle_r	mtp_angle_r	hip_flexion_l	hip_adduction_l	hip_rotation_l	knee_angle_l	ankle_angle_l	subtalar_angle_l	mtp_angle_l	lumbar_extension	lumbar_bending	lumbar_rotation
      2.17000000	      8.59706866	      1.12610893	      4.42698581	      0.18764398	      1.03059985	      0.03129526	     -4.22045642	      3.22056815	     -8.22959079	     -5.66615740	      6.78874466	      0.00000000	      0.00000000	      2.58532952	     -5.96510066	     -9.41927740	    -62.88179808	     -6.57400865	      0.00000000	      0.00000000	    -19.40823431	     -0.98373689	     -2.46788968
      2.18000000	      8.75228736	      1.28763983	      4.36780519	      0.18754376	      1.03123671	      0.03240155	     -5.00118789	      3.17567801	     -8.34816445	     -5.42928609	      7.01821418	      0.00000000	      0.00000000	      3.50265229	     -5.97673251	     -9.39179443	    -64.17412683	     -5.64408948	      0.00000000	      0.00000000	    -19.50566295	     -1.20828709	     -2.10889879
      2.19000000	      8.89632313	      1.46569114	      4.27752284	      0.18737441	      1.03194104	      0.03349295	     -5.75340567	      3.10620128	     -8.36931358	     -5.23177234	      7.29046378	      0.00000000	      0.00000000	      4.38940538	     -5.87463349	     -9.28826509	    -65.22054865	     -4.63774052	      0.00000000	      0.00000000	    -19.59843726	     -1.46357450	     -1.74028910
      2.20000000	      9.03637169	      1.65360417	      4.16567647	      0.18711380	      1.03271110	      0.03449993	     -6.46941560	      3.00961938	     -8.29656427	     -5.10178706	      7.55848306	      0.00000000	      0.00000000	      5.24812969	     -5.67354661	     -9.12719054	    -66.03460463	     -3.65171545	      0.00000000	      0.00000000	    -19.69761284	     -1.73115536	     -1.38130312
      2.21000000	      9.16588427	      1.84246082	      4.02397338	      0.18681630	      1.03351590	      0.03545120	     -7.14986145	      2.89652253	     -8.14943311	     -5.02367719	      7.82300279	      0.00000000	      0.00000000	      6.07298525	     -5.37880499	     -8.89930109	    -66.60151880	     -2.70562825	      0.00000000	      0.00000000	    -19.78338805	     -2.00044663	     -1.00694618
      2.22000000	      9.28644188	      2.03694943	      3.86332765	      0.18642145	      1.03433881	      0.03631290	     -7.79849892	      2.75545739	     -7.93865864	     -4.98384310	      8.07113140	      0.00000000	      0.00000000	      6.88119018	     -5.01149053	     -8.64643529	    -66.94734964	     -1.90532901	      0.00000000	      0.00000000	    -19.86950729	     -2.27171569	     -0.64744846
      2.23000000	      9.38134603	      2.24751849	      3.66899200	      0.18596463	      1.03512203	      0.03718518	     -8.41131351	      2.59134815	     -7.66248646	     -4.93880279	      8.34005358	      0.00000000	      0.00000000	      7.66642925	     -4.54646803	     -8.34378473	    -67.05725938	     -1.11167031	      0.00000000	      0.00000000	    -19.93442387	     -2.57664122	     -0.29087212
      2.24000000	      9.45748193	      2.46142165	      3.46105895	      0.18543336	      1.03587693	      0.03799817	     -8.98619633	      2.40881918	     -7.36841028	     -4.91315993	      8.59041275	      0.00000000	      0.00000000	      8.43036101	     -4.03592052	     -8.03534061	    -66.94327652	     -0.45088285	      0.00000000	      0.00000000	    -19.98750311	     -2.88389608	      0.04870014
      2.25000000	      9.54431992	      2.56542469	      3.23325645	      0.18472296	      1.03657455	      0.03880165	     -9.51499799	      2.33183280	     -7.20264733	     -4.94220943	      8.73852353	      0.00000000	      0.00000000	      9.20123595	     -3.62719309	     -7.69364907	    -66.69469445	     -0.10891687	      0.00000000	      0.00000000	    -20.06988996	     -3.08002000	      0.45993712
      2.26000000	      9.50923577	      2.88716057	      3.06558816	      0.18413074	      1.03711220	      0.03945703	    -10.03315439	      2.01976250	     -6.73950304	     -4.79195122	      9.06904532	      0.00000000	      0.00000000	      9.95897275	     -2.91186362	     -7.34535298	    -66.09292774	      0.67144430	      0.00000000	      0.00000000	    -20.01980392	     -3.50209639	      0.65804923
      2.27000000	      9.51695170	      3.19102026	      2.80891937	      0.18337912	      1.03762379	      0.04013129	    -10.50428705	      1.70402949	     -6.50991645	     -4.77038594	      9.37570651	      0.00000000	      0.00000000	     10.63802959	     -2.22554505	     -7.07788422	    -65.31981129	      1.28818932	      0.00000000	      0.00000000	    -20.03653020	     -3.92088528	      0.97347297
      2.28000000	      9.50573719	      3.42111347	      2.60121781	      0.18251291	      1.03801893	      0.04068331	    -10.95142811	      1.46402326	     -6.30007803	     -4.72830556	      9.66110398	      0.00000000	      0.00000000	     11.30832139	     -1.60768663	     -6.76095574	    -64.34752786	      1.79305314	      0.00000000	      0.00000000	    -20.04766325	     -4.23699508	      1.23095054
